<svg width="130" height="40" viewBox="0 0 130 40" fill="none" xmlns="http://www.w3.org/2000/svg">
<g clip-path="url(#clip0_7796_183150)">
<path d="M33.7792 30.0894C33.7158 30.1003 33.6428 30.1258 33.5879 30.1585C33.396 30.273 33.164 30.4197 32.9661 30.5363C32.0561 31.0737 31.1513 31.608 30.2409 32.1424C28.424 33.2085 26.6257 34.2613 24.8327 35.3209C23.9808 35.8246 23.1795 36.2811 22.3364 36.7745C21.2435 37.4145 20.1563 38.1153 19.031 38.6811C19.0121 38.6907 19.0121 38.7556 18.9418 38.7742C18.7263 38.8306 18.7419 38.7105 18.6838 38.6811C17.899 38.2855 17.1609 37.8339 16.4059 37.3932C15.0566 36.6052 13.7291 35.8024 12.3532 34.9923C11.9939 34.7806 11.6382 34.629 11.3136 34.3762C11.3172 34.2866 11.4383 34.1903 11.4633 34.1432C11.7722 33.5561 12.1162 32.9436 12.4828 32.3936C12.5268 32.3278 12.6499 32.0286 12.7065 32.0291C12.7828 32.0904 12.876 32.1226 12.9604 32.1702C14.2613 32.902 15.5287 33.7834 16.8153 34.5452C16.9187 34.6063 17.3248 34.8778 17.3248 34.7408V26.9078C17.8222 27.0304 18.3423 27.0956 18.8777 27.0956C19.0462 27.0956 19.2134 27.089 19.3786 27.0764C19.5417 27.0659 19.71 27.0497 19.8869 27.0281C19.9329 27.0226 19.9777 27.0092 20.023 26.9943C20.1227 26.9765 20.2216 26.9565 20.3196 26.934C20.3425 26.9359 20.3659 26.9398 20.39 26.9463V34.8008L29.1399 29.4641L23.2658 25.4459C23.2557 25.4289 23.2502 25.4118 23.2483 25.3945C23.4746 25.1867 23.686 24.963 23.8807 24.7251C23.9387 24.6703 23.9844 24.625 24.0067 24.5971C24.1805 24.3809 24.3405 24.1222 24.482 23.8546C24.6179 23.6182 24.7393 23.3724 24.8451 23.1185C24.8636 23.0947 24.8814 23.0635 24.8847 23.0211C24.8942 22.997 24.9037 22.9728 24.913 22.9485L30.7141 26.7443V18.608H33.7792V30.0894Z" fill="#0E4DCA"/>
<path fill-rule="evenodd" clip-rule="evenodd" d="M12.8505 22.97C13.2239 23.9344 13.8226 24.7867 14.5822 25.4627C14.5535 25.4777 14.5418 25.513 14.5075 25.5335C13.6491 26.0467 12.8171 26.6677 11.9466 27.2548C11.2057 27.7548 10.3684 28.2371 9.67513 28.7315C9.64516 28.7528 9.50451 28.8669 9.42784 28.9326C9.45589 29.1159 9.47047 29.3036 9.47047 29.4947C9.47047 31.5324 7.81651 33.1843 5.77624 33.1843C3.73599 33.1843 2.08203 31.5324 2.08203 29.4947C2.08203 27.4571 3.73599 25.8052 5.77624 25.8052C6.51291 25.8052 7.1992 26.0205 7.77547 26.3917C7.90382 26.2629 8.10249 26.1674 8.25964 26.0609C9.66626 25.1044 11.043 24.1266 12.4706 23.2278C12.596 23.149 12.7107 23.0361 12.8505 22.97ZM5.77624 28.1035C5.00697 28.1035 4.38335 28.7264 4.38335 29.4947C4.38335 30.263 5.00697 30.8859 5.77624 30.8859C6.54553 30.8859 7.16915 30.263 7.16915 29.4947C7.16915 28.7264 6.54553 28.1035 5.77624 28.1035Z" fill="#0E4DCA"/>
<path d="M17.836 17.1601C18.1311 17.0959 19.4219 16.9657 19.6935 17.0919C19.8187 17.1499 19.8046 17.1254 19.9241 17.1612C20.8741 17.4475 21.8229 18.2113 22.2185 19.2004C22.4919 19.8834 22.6162 20.6379 22.4451 21.4475C22.2407 22.4129 21.3897 23.5459 20.4033 23.9403C19.6516 24.2406 18.8021 24.3693 17.9172 24.1677C17.8872 24.1608 17.8929 24.0952 17.8622 24.0883C17.0281 23.9052 16.1975 23.2467 15.7469 22.4298C15.3239 21.6624 15.1462 20.7734 15.3505 19.8399C15.571 18.8331 16.4677 17.6039 17.5376 17.3193C17.5561 17.3145 17.8174 17.1641 17.836 17.1601Z" fill="#0E4DCA"/>
<path d="M18.7738 2.55395C18.9894 2.4975 18.9738 2.61764 19.0318 2.64708C20.3238 3.29829 21.5673 4.12209 22.8254 4.85958C23.0752 5.00637 23.4931 5.17777 23.7253 5.33058C24.5914 5.90115 25.6253 6.45559 26.5111 7.0072C26.5866 7.05438 26.6782 7.10114 26.7622 7.13058L25.2502 9.50721L20.3904 6.52574V14.3702C20.3057 14.3499 20.2203 14.3314 20.1344 14.3144C20.1183 14.3086 20.1024 14.3039 20.086 14.3015C20.0597 14.2978 20.0334 14.2941 20.0071 14.2906C19.6403 14.226 19.2629 14.1923 18.8777 14.1923C18.3426 14.1923 17.8228 14.2573 17.3257 14.3797V6.58622C17.3257 6.38058 16.972 6.74267 16.9502 6.75558C14.3416 8.32735 11.6478 9.91648 9.12567 11.5475C9.04167 11.5544 8.62665 11.7762 8.61413 11.8278C8.59356 11.9036 8.65371 11.9342 8.69812 11.9729C8.81439 12.0749 9.04937 12.1911 9.18785 12.2862C10.9332 13.4867 12.5809 14.6088 14.33 15.7891C14.3907 15.8301 14.4902 15.8418 14.5261 15.8758C13.7711 16.5634 13.1801 17.4274 12.8184 18.4025L7.0004 14.5419V22.7991H3.89523V11.2386C4.03613 11.2536 4.12619 11.131 4.21259 11.0818C5.83077 10.1592 7.41021 9.2455 9.02718 8.29631C10.5271 7.41607 12.1255 6.45559 13.6621 5.55559C15.2815 4.6072 17.007 3.49062 18.6846 2.64708C18.7036 2.63741 18.7036 2.57251 18.7738 2.55395Z" fill="#0E4DCA"/>
<path fill-rule="evenodd" clip-rule="evenodd" d="M32.2211 8.1842C34.2614 8.1842 35.9154 9.83605 35.9154 11.8737C35.9154 13.9113 34.2614 15.5633 32.2211 15.5633C31.4689 15.5633 30.7692 15.3386 30.1855 14.953C30.134 15.0179 30.0524 15.0182 29.978 15.0657C28.4833 16.0222 27.0077 17.0887 25.4868 18.1004C25.3418 18.1968 25.1868 18.3028 25.0569 18.4209C25.0024 18.4237 24.9649 18.4189 24.9391 18.4085C24.918 18.3515 24.8961 18.2949 24.8734 18.2387C24.8717 18.2246 24.8693 18.2103 24.8654 18.1959C24.864 18.1905 24.8476 18.1636 24.8281 18.1287C24.5822 17.5494 24.2541 17.0133 23.8583 16.5353C23.8172 16.4844 23.776 16.4345 23.7346 16.3858C23.726 16.3756 23.7111 16.3607 23.6921 16.3426C23.5764 16.2132 23.4553 16.0886 23.3294 15.969C23.2993 15.8124 23.5102 15.8158 23.5633 15.7773C25.0791 14.675 26.7267 13.635 28.2794 12.5927C28.3781 12.5267 28.4596 12.4338 28.5597 12.3669C28.5381 12.2056 28.5269 12.041 28.5269 11.8737C28.5269 9.83607 30.1809 8.18421 32.2211 8.1842ZM32.2211 10.4826C31.4519 10.4826 30.8282 11.1054 30.8282 11.8737C30.8282 12.642 31.4519 13.2649 32.2211 13.2649C32.9904 13.2649 33.6141 12.6421 33.6141 11.8737C33.6141 11.1054 32.9904 10.4826 32.2211 10.4826Z" fill="#0E4DCA"/>
<path d="M44.0008 5.72533H49.1635C50.3724 5.72533 51.4604 5.91022 52.4275 6.28C53.3946 6.64978 54.2195 7.176 54.9022 7.85867C55.5848 8.52711 56.104 9.33067 56.4595 10.2693C56.8293 11.208 57.0142 12.2391 57.0142 13.3627C57.0142 14.5004 56.8293 15.5387 56.4595 16.4773C56.104 17.416 55.5848 18.2196 54.9022 18.888C54.2195 19.5564 53.3946 20.0756 52.4275 20.4453C51.4604 20.8151 50.3724 21 49.1635 21H44.0008V5.72533ZM49.0355 18.2693C49.8746 18.2693 50.6142 18.1556 51.2542 17.928C51.8942 17.6862 52.4275 17.352 52.8542 16.9253C53.2808 16.4987 53.6008 15.9867 53.8142 15.3893C54.0275 14.7778 54.1342 14.1022 54.1342 13.3627C54.1342 12.6231 54.0275 11.9547 53.8142 11.3573C53.6008 10.7458 53.2808 10.2267 52.8542 9.8C52.4275 9.37333 51.8942 9.04622 51.2542 8.81867C50.6142 8.57689 49.8746 8.456 49.0355 8.456H46.8808V18.2693H49.0355ZM65.4355 19.8907H65.2648C64.9377 20.2889 64.5395 20.6302 64.0702 20.9147C63.6151 21.1991 63.0248 21.3413 62.2995 21.3413C61.7591 21.3413 61.2471 21.2489 60.7635 21.064C60.2942 20.8933 59.8817 20.6516 59.5262 20.3387C59.1706 20.0258 58.8933 19.6489 58.6942 19.208C58.4951 18.7671 58.3955 18.2836 58.3955 17.7573C58.3955 17.2169 58.5022 16.7333 58.7155 16.3067C58.9288 15.8658 59.2275 15.4889 59.6115 15.176C59.9955 14.8631 60.4435 14.6284 60.9555 14.472C61.4817 14.3013 62.0506 14.216 62.6622 14.216C63.3448 14.216 63.9066 14.2729 64.3475 14.3867C64.7884 14.4862 65.1511 14.5929 65.4355 14.7067V14.3867C65.4355 13.832 65.2151 13.3769 64.7742 13.0213C64.3333 12.6516 63.7857 12.4667 63.1315 12.4667C62.1644 12.4667 61.3466 12.872 60.6782 13.6827L58.6515 12.296C59.7608 10.9022 61.2755 10.2053 63.1955 10.2053C64.8168 10.2053 66.0542 10.5893 66.9075 11.3573C67.7608 12.1111 68.1875 13.2347 68.1875 14.728V21H65.4355V19.8907ZM65.4355 16.7547C65.1084 16.5982 64.7671 16.4773 64.4115 16.392C64.0702 16.2924 63.6933 16.2427 63.2808 16.2427C62.6124 16.2427 62.0933 16.392 61.7235 16.6907C61.368 16.9751 61.1902 17.3307 61.1902 17.7573C61.1902 18.184 61.3608 18.5253 61.7022 18.7813C62.0577 19.0373 62.4631 19.1653 62.9182 19.1653C63.288 19.1653 63.6293 19.1013 63.9422 18.9733C64.2551 18.8311 64.5182 18.6533 64.7315 18.44C64.9591 18.2124 65.1297 17.9564 65.2435 17.672C65.3715 17.3733 65.4355 17.0676 65.4355 16.7547ZM71.3532 12.936H69.5185V10.5467H71.3532V7.34667H74.1478V10.5467H76.7078V12.936H74.1478V16.9893C74.1478 17.2311 74.1692 17.4587 74.2118 17.672C74.2687 17.8711 74.3683 18.0418 74.5105 18.184C74.7096 18.4116 74.9941 18.5253 75.3638 18.5253C75.6056 18.5253 75.7976 18.504 75.9398 18.4613C76.0821 18.4044 76.2172 18.3333 76.3452 18.248L77.1345 20.7013C76.8074 20.8578 76.4518 20.9716 76.0678 21.0427C75.6981 21.128 75.2856 21.1707 74.8305 21.1707C74.3043 21.1707 73.8278 21.0924 73.4012 20.936C72.9887 20.7653 72.6403 20.5378 72.3558 20.2533C71.6874 19.6133 71.3532 18.7031 71.3532 17.5227V12.936ZM84.998 19.8907H84.8273C84.5002 20.2889 84.102 20.6302 83.6327 20.9147C83.1776 21.1991 82.5873 21.3413 81.862 21.3413C81.3216 21.3413 80.8096 21.2489 80.326 21.064C79.8567 20.8933 79.4442 20.6516 79.0887 20.3387C78.7331 20.0258 78.4558 19.6489 78.2567 19.208C78.0576 18.7671 77.958 18.2836 77.958 17.7573C77.958 17.2169 78.0647 16.7333 78.278 16.3067C78.4913 15.8658 78.79 15.4889 79.174 15.176C79.558 14.8631 80.006 14.6284 80.518 14.472C81.0442 14.3013 81.6131 14.216 82.2247 14.216C82.9073 14.216 83.4691 14.2729 83.91 14.3867C84.3509 14.4862 84.7136 14.5929 84.998 14.7067V14.3867C84.998 13.832 84.7776 13.3769 84.3367 13.0213C83.8958 12.6516 83.3482 12.4667 82.694 12.4667C81.7269 12.4667 80.9091 12.872 80.2407 13.6827L78.214 12.296C79.3233 10.9022 80.838 10.2053 82.758 10.2053C84.3793 10.2053 85.6167 10.5893 86.47 11.3573C87.3233 12.1111 87.75 13.2347 87.75 14.728V21H84.998V19.8907ZM84.998 16.7547C84.6709 16.5982 84.3296 16.4773 83.974 16.392C83.6327 16.2924 83.2558 16.2427 82.8433 16.2427C82.1749 16.2427 81.6558 16.392 81.286 16.6907C80.9305 16.9751 80.7527 17.3307 80.7527 17.7573C80.7527 18.184 80.9233 18.5253 81.2647 18.7813C81.6202 19.0373 82.0256 19.1653 82.4807 19.1653C82.8505 19.1653 83.1918 19.1013 83.5047 18.9733C83.8176 18.8311 84.0807 18.6533 84.294 18.44C84.5216 18.2124 84.6922 17.9564 84.806 17.672C84.934 17.3733 84.998 17.0676 84.998 16.7547ZM89.8867 10.5467H92.5107V11.8053H92.6813C92.9373 11.3644 93.3356 10.9876 93.876 10.6747C94.4165 10.3618 95.0849 10.2053 95.8813 10.2053C96.5498 10.2053 97.1827 10.3476 97.78 10.632C98.3916 10.9022 98.9249 11.2862 99.38 11.784C99.8493 12.2676 100.219 12.8507 100.489 13.5333C100.76 14.216 100.895 14.9627 100.895 15.7733C100.895 16.584 100.76 17.3307 100.489 18.0133C100.219 18.696 99.8493 19.2862 99.38 19.784C98.9249 20.2676 98.3916 20.6516 97.78 20.936C97.1827 21.2062 96.5498 21.3413 95.8813 21.3413C95.0849 21.3413 94.4165 21.1849 93.876 20.872C93.3356 20.5591 92.9373 20.1822 92.6813 19.7413H92.5107L92.6813 21.2347V25.608H89.8867V10.5467ZM95.3053 18.76C95.6751 18.76 96.0236 18.6889 96.3507 18.5467C96.692 18.4044 96.9907 18.2053 97.2467 17.9493C97.5027 17.6933 97.7089 17.3804 97.8653 17.0107C98.0218 16.6409 98.1 16.2284 98.1 15.7733C98.1 15.3182 98.0218 14.9058 97.8653 14.536C97.7089 14.1662 97.5027 13.8533 97.2467 13.5973C96.9907 13.3413 96.692 13.1422 96.3507 13C96.0236 12.8578 95.6751 12.7867 95.3053 12.7867C94.9356 12.7867 94.58 12.8578 94.2387 13C93.9116 13.128 93.62 13.32 93.364 13.576C93.108 13.832 92.9018 14.1449 92.7453 14.5147C92.5889 14.8844 92.5107 15.304 92.5107 15.7733C92.5107 16.2427 92.5889 16.6622 92.7453 17.032C92.9018 17.4018 93.108 17.7147 93.364 17.9707C93.62 18.2267 93.9116 18.4258 94.2387 18.568C94.58 18.696 94.9356 18.76 95.3053 18.76ZM102.472 21V5.72533H105.267V21H102.472ZM117.454 18.4827C116.97 19.336 116.316 20.0258 115.491 20.552C114.681 21.0782 113.685 21.3413 112.505 21.3413C111.708 21.3413 110.969 21.2062 110.286 20.936C109.618 20.6516 109.034 20.2604 108.537 19.7627C108.039 19.2649 107.648 18.6818 107.363 18.0133C107.093 17.3307 106.958 16.584 106.958 15.7733C106.958 15.0196 107.093 14.3084 107.363 13.64C107.634 12.9573 108.01 12.3671 108.494 11.8693C108.978 11.3573 109.546 10.952 110.201 10.6533C110.869 10.3547 111.602 10.2053 112.398 10.2053C113.237 10.2053 113.984 10.3476 114.638 10.632C115.292 10.9022 115.84 11.2862 116.281 11.784C116.722 12.2676 117.056 12.8436 117.283 13.512C117.511 14.1804 117.625 14.9058 117.625 15.688C117.625 15.7876 117.625 15.8729 117.625 15.944C117.61 16.0293 117.603 16.1076 117.603 16.1787C117.589 16.2498 117.582 16.328 117.582 16.4133H109.71C109.767 16.84 109.881 17.2098 110.051 17.5227C110.236 17.8213 110.457 18.0773 110.713 18.2907C110.983 18.4898 111.274 18.6391 111.587 18.7387C111.9 18.824 112.22 18.8667 112.547 18.8667C113.187 18.8667 113.714 18.7244 114.126 18.44C114.553 18.1413 114.887 17.7716 115.129 17.3307L117.454 18.4827ZM114.915 14.4293C114.901 14.2444 114.837 14.0382 114.723 13.8107C114.624 13.5831 114.467 13.3698 114.254 13.1707C114.055 12.9716 113.799 12.808 113.486 12.68C113.187 12.552 112.825 12.488 112.398 12.488C111.801 12.488 111.274 12.6587 110.819 13C110.364 13.3413 110.044 13.8178 109.859 14.4293H114.915ZM121.804 15.688L118.22 10.5467H121.527L123.425 13.448H123.575L125.367 10.5467H128.78L125.111 15.688L128.78 21H125.495L123.532 18.0133H123.383L121.484 21H118.177L121.804 15.688Z" fill="#0E4DCA"/>
<path d="M46.9926 37.0965C46.0879 37.0965 45.3581 36.8 44.8031 36.207C44.2481 35.6217 43.9706 34.8462 43.9706 33.8807V28.7491H45.0198V33.9263C45.0198 34.5953 45.1946 35.1237 45.5443 35.5114C45.894 35.8991 46.3768 36.093 46.9926 36.093C47.6084 36.093 48.0911 35.8991 48.4409 35.5114C48.7906 35.1237 48.9654 34.5953 48.9654 33.9263V28.7491H50.0146V33.8807C50.0146 34.869 49.7409 35.6521 49.1935 36.2298C48.6461 36.8076 47.9125 37.0965 46.9926 37.0965ZM51.2872 31.3263H52.2907V32.1017H52.3363C52.496 31.828 52.7393 31.6 53.0662 31.4175C53.4007 31.2351 53.7466 31.1438 54.1039 31.1438C54.7881 31.1438 55.3127 31.3415 55.6776 31.7368C56.0501 32.1245 56.2364 32.6795 56.2364 33.4017V36.9141H55.1872V33.4702C55.1644 32.5579 54.7045 32.1017 53.8074 32.1017C53.3893 32.1017 53.0396 32.2728 52.7583 32.6149C52.477 32.9494 52.3363 33.3523 52.3363 33.8237V36.9141H51.2872V31.3263ZM58.8249 29.3991C58.8249 29.6043 58.7527 29.7792 58.6082 29.9236C58.4638 30.0681 58.2889 30.1403 58.0837 30.1403C57.8784 30.1403 57.7036 30.0681 57.5591 29.9236C57.4147 29.7792 57.3424 29.6043 57.3424 29.3991C57.3424 29.1938 57.4147 29.019 57.5591 28.8745C57.7036 28.7301 57.8784 28.6578 58.0837 28.6578C58.2889 28.6578 58.4638 28.7301 58.6082 28.8745C58.7527 29.019 58.8249 29.1938 58.8249 29.3991ZM58.6082 31.3263V36.9141H57.5591V31.3263H58.6082ZM62.6876 36.9141H61.6385L59.3806 31.3263H60.5209L62.1631 35.6597H62.1859L63.8508 31.3263H64.9683L62.6876 36.9141ZM67.9948 37.0965C67.1738 37.0965 66.4972 36.8152 65.965 36.2527C65.4328 35.6901 65.1667 34.9792 65.1667 34.1202C65.1667 33.2687 65.4252 32.5617 65.9422 31.9991C66.4592 31.4289 67.1206 31.1438 67.9264 31.1438C68.7551 31.1438 69.4127 31.4137 69.8993 31.9535C70.3934 32.4857 70.6405 33.2345 70.6405 34.2L70.6291 34.314H66.2387C66.2539 34.8614 66.4364 35.3024 66.7861 35.6369C67.1358 35.9714 67.5539 36.1386 68.0405 36.1386C68.7095 36.1386 69.234 35.8041 69.6142 35.1351L70.5493 35.5912C70.2984 36.0626 69.9487 36.4313 69.5001 36.6974C69.0592 36.9635 68.5574 37.0965 67.9948 37.0965ZM66.3185 33.4474H69.5229C69.4925 33.0596 69.3329 32.7403 69.044 32.4895C68.7627 32.231 68.3826 32.1017 67.9036 32.1017C67.5083 32.1017 67.1662 32.2234 66.8773 32.4667C66.596 32.7099 66.4097 33.0368 66.3185 33.4474ZM72.649 36.9141H71.5999V31.3263H72.6034V32.2386H72.649C72.7555 31.9421 72.9721 31.6912 73.299 31.4859C73.6335 31.2731 73.9605 31.1666 74.2798 31.1666C74.5839 31.1666 74.8423 31.2123 75.0552 31.3035L74.7359 32.3184C74.6067 32.2652 74.4014 32.2386 74.1201 32.2386C73.7248 32.2386 73.3789 32.3982 73.0824 32.7175C72.7935 33.0368 72.649 33.4094 72.649 33.8351V36.9141ZM79.7963 35.3632C79.7963 35.8497 79.5834 36.2603 79.1577 36.5948C78.7319 36.9293 78.1959 37.0965 77.5497 37.0965C76.9872 37.0965 76.493 36.9521 76.0673 36.6632C75.6415 36.3667 75.3374 35.979 75.155 35.5L76.0901 35.1009C76.2269 35.4354 76.4246 35.6977 76.6831 35.8877C76.9492 36.0702 77.238 36.1614 77.5497 36.1614C77.8842 36.1614 78.1617 36.0892 78.3822 35.9448C78.6103 35.8003 78.7243 35.6293 78.7243 35.4316C78.7243 35.0743 78.4506 34.812 77.9033 34.6447L76.9454 34.4053C75.8582 34.1316 75.3146 33.607 75.3146 32.8316C75.3146 32.3222 75.5199 31.9155 75.9304 31.6114C76.3486 31.2997 76.8807 31.1438 77.5269 31.1438C78.0211 31.1438 78.4658 31.2617 78.8612 31.4973C79.2641 31.733 79.5454 32.0485 79.705 32.4438L78.7699 32.8316C78.6635 32.5959 78.4886 32.4134 78.2454 32.2842C78.0097 32.1474 77.7436 32.0789 77.4471 32.0789C77.1734 32.0789 76.9263 32.1474 76.7059 32.2842C76.493 32.421 76.3866 32.5883 76.3866 32.786C76.3866 33.1053 76.6869 33.3333 77.2875 33.4702L78.1313 33.6868C79.2413 33.9605 79.7963 34.5193 79.7963 35.3632ZM81.5292 35.2035C81.5292 35.4772 81.6432 35.7053 81.8713 35.8877C82.1069 36.0702 82.3806 36.1614 82.6923 36.1614C83.1333 36.1614 83.5248 35.998 83.8669 35.6711C84.2166 35.3442 84.3915 34.9602 84.3915 34.5193C84.0646 34.2608 83.6084 34.1316 83.023 34.1316C82.5973 34.1316 82.24 34.2342 81.9511 34.4395C81.6698 34.6447 81.5292 34.8994 81.5292 35.2035ZM82.8862 31.1438C83.6616 31.1438 84.2736 31.3529 84.7222 31.771C85.1707 32.1816 85.395 32.7479 85.395 33.4702V36.9141H84.3915V36.1386H84.3459C83.9125 36.7772 83.3347 37.0965 82.6125 37.0965C81.9967 37.0965 81.4797 36.9141 81.0616 36.5491C80.6511 36.1842 80.4458 35.7281 80.4458 35.1807C80.4458 34.6029 80.6625 34.143 81.0958 33.8009C81.5368 33.4588 82.1221 33.2877 82.852 33.2877C83.4754 33.2877 83.9885 33.4017 84.3915 33.6298V33.3903C84.3915 33.0254 84.247 32.7175 83.9581 32.4667C83.6692 32.2082 83.3309 32.0789 82.9432 32.0789C82.3578 32.0789 81.8941 32.326 81.552 32.8202L80.6283 32.2386C81.1376 31.5087 81.8903 31.1438 82.8862 31.1438ZM87.6274 28.7491V36.9141H86.5783V28.7491H87.6274ZM95.2142 37.0965C94.0054 37.0965 92.9943 36.6898 92.1809 35.8763C91.375 35.0629 90.9721 34.048 90.9721 32.8316C90.9721 31.6152 91.375 30.6041 92.1809 29.7982C92.9867 28.9771 93.9978 28.5666 95.2142 28.5666C96.4458 28.5666 97.4455 29.0114 98.2134 29.9008L97.4607 30.6307C96.8753 29.9236 96.1265 29.5701 95.2142 29.5701C94.3095 29.5701 93.5531 29.8742 92.9449 30.4824C92.3443 31.083 92.044 31.8661 92.044 32.8316C92.044 33.7971 92.3443 34.5801 92.9449 35.1807C93.5531 35.7889 94.3095 36.093 95.2142 36.093C96.1645 36.093 96.9894 35.6939 97.6888 34.8956L98.4528 35.6369C98.0651 36.1006 97.59 36.4617 97.0274 36.7202C96.4648 36.9711 95.8604 37.0965 95.2142 37.0965ZM100.038 35.2035C100.038 35.4772 100.152 35.7053 100.38 35.8877C100.616 36.0702 100.889 36.1614 101.201 36.1614C101.642 36.1614 102.033 35.998 102.376 35.6711C102.725 35.3442 102.9 34.9602 102.9 34.5193C102.573 34.2608 102.117 34.1316 101.532 34.1316C101.106 34.1316 100.749 34.2342 100.46 34.4395C100.178 34.6447 100.038 34.8994 100.038 35.2035ZM101.395 31.1438C102.17 31.1438 102.782 31.3529 103.231 31.771C103.679 32.1816 103.904 32.7479 103.904 33.4702V36.9141H102.9V36.1386H102.854C102.421 36.7772 101.843 37.0965 101.121 37.0965C100.505 37.0965 99.9883 36.9141 99.5702 36.5491C99.1597 36.1842 98.9544 35.7281 98.9544 35.1807C98.9544 34.6029 99.1711 34.143 99.6044 33.8009C100.045 33.4588 100.631 33.2877 101.361 33.2877C101.984 33.2877 102.497 33.4017 102.9 33.6298V33.3903C102.9 33.0254 102.756 32.7175 102.467 32.4667C102.178 32.2082 101.84 32.0789 101.452 32.0789C100.866 32.0789 100.403 32.326 100.061 32.8202L99.1369 32.2386C99.6462 31.5087 100.399 31.1438 101.395 31.1438ZM107.188 37.0053C106.732 37.0053 106.352 36.8646 106.047 36.5834C105.751 36.3021 105.599 35.9105 105.591 35.4088V32.2842H104.611V31.3263H105.591V29.6157H106.64V31.3263H108.009V32.2842H106.64V35.0667C106.64 35.4392 106.713 35.6939 106.857 35.8307C107.002 35.96 107.165 36.0246 107.347 36.0246C107.431 36.0246 107.511 36.017 107.587 36.0018C107.671 35.979 107.747 35.9524 107.815 35.9219L108.146 36.857C107.872 36.9559 107.553 37.0053 107.188 37.0053ZM109.66 35.2035C109.66 35.4772 109.774 35.7053 110.002 35.8877C110.237 36.0702 110.511 36.1614 110.823 36.1614C111.264 36.1614 111.655 35.998 111.997 35.6711C112.347 35.3442 112.522 34.9602 112.522 34.5193C112.195 34.2608 111.739 34.1316 111.153 34.1316C110.728 34.1316 110.37 34.2342 110.081 34.4395C109.8 34.6447 109.66 34.8994 109.66 35.2035ZM111.017 31.1438C111.792 31.1438 112.404 31.3529 112.853 31.771C113.301 32.1816 113.525 32.7479 113.525 33.4702V36.9141H112.522V36.1386H112.476C112.043 36.7772 111.465 37.0965 110.743 37.0965C110.127 37.0965 109.61 36.9141 109.192 36.5491C108.781 36.1842 108.576 35.7281 108.576 35.1807C108.576 34.6029 108.793 34.143 109.226 33.8009C109.667 33.4588 110.253 33.2877 110.982 33.2877C111.606 33.2877 112.119 33.4017 112.522 33.6298V33.3903C112.522 33.0254 112.377 32.7175 112.089 32.4667C111.8 32.2082 111.461 32.0789 111.074 32.0789C110.488 32.0789 110.024 32.326 109.682 32.8202L108.759 32.2386C109.268 31.5087 110.021 31.1438 111.017 31.1438ZM115.758 28.7491V36.9141H114.709V28.7491H115.758ZM116.661 34.1202C116.661 33.2611 116.931 32.5503 117.471 31.9877C118.018 31.4251 118.706 31.1438 119.535 31.1438C120.364 31.1438 121.048 31.4251 121.588 31.9877C122.135 32.5503 122.409 33.2611 122.409 34.1202C122.409 34.9869 122.135 35.6977 121.588 36.2527C121.048 36.8152 120.364 37.0965 119.535 37.0965C118.706 37.0965 118.018 36.8152 117.471 36.2527C116.931 35.6901 116.661 34.9792 116.661 34.1202ZM117.71 34.1202C117.71 34.7208 117.885 35.2073 118.235 35.5798C118.585 35.9524 119.018 36.1386 119.535 36.1386C120.052 36.1386 120.485 35.9524 120.835 35.5798C121.185 35.2073 121.359 34.7208 121.359 34.1202C121.359 33.5272 121.185 33.0444 120.835 32.6719C120.478 32.2918 120.044 32.1017 119.535 32.1017C119.026 32.1017 118.592 32.2918 118.235 32.6719C117.885 33.0444 117.71 33.5272 117.71 34.1202ZM125.87 36.1386C126.387 36.1386 126.809 35.9524 127.136 35.5798C127.478 35.2073 127.649 34.7208 127.649 34.1202C127.649 33.5348 127.478 33.052 127.136 32.6719C126.802 32.2918 126.38 32.1017 125.87 32.1017C125.369 32.1017 124.947 32.2918 124.605 32.6719C124.263 33.052 124.091 33.5348 124.091 34.1202C124.091 34.7132 124.263 35.1959 124.605 35.5684C124.947 35.9486 125.369 36.1386 125.87 36.1386ZM125.836 39.5597C125.525 39.5597 125.232 39.5179 124.958 39.4343C124.684 39.3582 124.434 39.248 124.206 39.1036C123.985 38.9591 123.795 38.7881 123.635 38.5904C123.476 38.3927 123.354 38.1723 123.27 37.929L124.263 37.5185C124.377 37.8454 124.574 38.1076 124.856 38.3053C125.137 38.503 125.464 38.6018 125.836 38.6018C126.406 38.6018 126.851 38.4307 127.17 38.0886C127.49 37.7465 127.649 37.2752 127.649 36.6746V36.1386H127.604C127.406 36.4351 127.136 36.6708 126.794 36.8456C126.46 37.0129 126.095 37.0965 125.699 37.0965C124.97 37.0965 124.342 36.8114 123.818 36.2412C123.301 35.6559 123.042 34.9488 123.042 34.1202C123.042 33.2915 123.301 32.5883 123.818 32.0105C124.342 31.4327 124.97 31.1438 125.699 31.1438C126.095 31.1438 126.46 31.2313 126.794 31.4061C127.136 31.5734 127.406 31.8052 127.604 32.1017H127.649V31.3263H128.653V36.6746C128.653 37.5717 128.398 38.2749 127.889 38.7843C127.372 39.3012 126.688 39.5597 125.836 39.5597Z" fill="#0E4DCA"/>
</g>
<defs>
<clipPath id="clip0_7796_183150">
<rect width="129.333" height="40" fill="white"/>
</clipPath>
</defs>
</svg>
